<svg xmlns="http://www.w3.org/2000/svg" viewBox="0 0 512 512" width="512" height="512">
  <path d="M 456.000000 256.000000 L 457.646722 259.519757 L 459.229340 263.096925 L 460.738055 266.729867 L 462.163130 270.416330 L 463.494990 274.153459 L 464.724337 277.937812 L 465.842251 281.765389 L 466.840296 285.631671 L 467.710612 289.531667 L 468.446013 293.459964 L 469.040063 297.410793 L 469.487155 301.378096 L 469.782573 305.355596 L 469.922543 309.336880 L 469.904274 313.315478 L 469.725987 317.284941 L 469.386925 321.238930 L 468.887355 325.171295 L 468.228554 329.076152 L 467.412783 332.947960 L 466.443241 336.781592 L 465.324021 340.572394 L 464.060034 344.316245 L 462.656941 348.009598 L 461.121065 351.649523 L 459.459293 355.233728 L 457.678981 358.760573 L 455.787843 362.229080 L 453.793842 365.638917 L 451.705081 368.990381 L 449.529684 372.284366 L 447.275695 375.522319 L 444.950962 378.706189 L 442.563041 381.838360 L 440.119099 384.921581 L 437.625827 387.958888 L 435.089364 390.953516 L 432.515228 393.908811 L 429.908264 396.828135 L 427.272598 399.714774 L 424.611614 402.571840 L 421.927932 405.402181 L 419.223408 408.208290 L 416.499146 410.992224 L 413.755523 413.755523 L 410.992224 416.499146 L 408.208290 419.223408 L 405.402181 421.927932 L 402.571840 424.611614 L 399.714774 427.272598 L 396.828135 429.908264 L 393.908811 432.515228 L 390.953516 435.089364 L 387.958888 437.625827 L 384.921581 440.119099 L 381.838360 442.563041 L 378.706189 444.950962 L 375.522319 447.275695 L 372.284366 449.529684 L 368.990381 451.705081 L 365.638917 453.793842 L 362.229080 455.787843 L 358.760573 457.678981 L 355.233728 459.459293 L 351.649523 461.121065 L 348.009598 462.656941 L 344.316245 464.060034 L 340.572394 465.324021 L 336.781592 466.443241 L 332.947960 467.412783 L 329.076152 468.228554 L 325.171295 468.887355 L 321.238930 469.386925 L 317.284941 469.725987 L 313.315478 469.904274 L 309.336880 469.922543 L 305.355596 469.782573 L 301.378096 469.487155 L 297.410793 469.040063 L 293.459964 468.446013 L 289.531667 467.710612 L 285.631671 466.840296 L 281.765389 465.842251 L 277.937812 464.724337 L 274.153459 463.494990 L 270.416330 462.163130 L 266.729867 460.738055 L 263.096925 459.229340 L 259.519757 457.646722 L 256.000000 456.000000 L 252.538679 454.298921 L 249.136215 452.553081 L 245.792441 450.771821 L 242.506633 448.964134 L 239.277541 447.138578 L 236.103433 445.303190 L 232.982141 443.465417 L 229.911116 441.632053 L 226.887485 439.809184 L 223.908111 438.002145 L 220.969657 436.215489 L 218.068652 434.452963 L 215.201551 432.717496 L 212.364806 431.011203 L 209.554922 429.335390 L 206.768521 427.690572 L 204.002393 426.076509 L 201.253555 424.492234 L 198.519290 422.936102 L 195.797196 421.405844 L 193.085215 419.898618 L 190.381666 418.411076 L 187.685264 416.939431 L 184.995141 415.479524 L 182.310849 414.026895 L 179.632362 412.576861 L 176.960078 411.124582 L 174.294797 409.665138 L 171.637712 408.193596 L 168.990381 406.705081 L 166.354698 405.194837 L 163.732860 403.658289 L 161.127329 402.091102 L 158.540787 400.489225 L 155.976093 398.848943 L 153.436234 397.166913 L 150.924274 395.440198 L 148.443304 393.666293 L 145.996388 391.843148 L 143.586514 389.969175 L 141.216541 388.043265 L 138.889149 386.064777 L 136.606792 384.033540 L 134.371653 381.949840 L 132.185603 379.814397 L 130.050160 377.628347 L 127.966460 375.393208 L 125.935223 373.110851 L 123.956735 370.783459 L 122.030825 368.413486 L 120.156852 366.003612 L 118.333707 363.556696 L 116.559802 361.075726 L 114.833087 358.563766 L 113.151057 356.023907 L 111.510775 353.459213 L 109.908898 350.872671 L 108.341711 348.267140 L 106.805163 345.645302 L 105.294919 343.009619 L 103.806404 340.362288 L 102.334862 337.705203 L 100.875418 335.039922 L 99.423139 332.367638 L 97.973105 329.689151 L 96.520476 327.004859 L 95.060569 324.314736 L 93.588924 321.618334 L 92.101382 318.914785 L 90.594156 316.202804 L 89.063898 313.480710 L 87.507766 310.746445 L 85.923491 307.997607 L 84.309428 305.231479 L 82.664610 302.445078 L 80.988797 299.635194 L 79.282504 296.798449 L 77.547037 293.931348 L 75.784511 291.030343 L 73.997855 288.091889 L 72.190816 285.112515 L 70.367947 282.088884 L 68.534583 279.017859 L 66.696810 275.896567 L 64.861422 272.722459 L 63.035866 269.493367 L 61.228179 266.207559 L 59.446919 262.863785 L 57.701079 259.461321 L 56.000000 256.000000 L 54.353278 252.480243 L 52.770660 248.903075 L 51.261945 245.270133 L 49.836870 241.583670 L 48.505010 237.846541 L 47.275663 234.062188 L 46.157749 230.234611 L 45.159704 226.368329 L 44.289388 222.468333 L 43.553987 218.540036 L 42.959937 214.589207 L 42.512845 210.621904 L 42.217427 206.644404 L 42.077457 202.663120 L 42.095726 198.684522 L 42.274013 194.715059 L 42.613075 190.761070 L 43.112645 186.828705 L 43.771446 182.923848 L 44.587217 179.052040 L 45.556759 175.218408 L 46.675979 171.427606 L 47.939966 167.683755 L 49.343059 163.990402 L 50.878935 160.350477 L 52.540707 156.766272 L 54.321019 153.239427 L 56.212157 149.770920 L 58.206158 146.361083 L 60.294919 143.009619 L 62.470316 139.715634 L 64.724305 136.477681 L 67.049038 133.293811 L 69.436959 130.161640 L 71.880901 127.078419 L 74.374173 124.041112 L 76.910636 121.046484 L 79.484772 118.091189 L 82.091736 115.171865 L 84.727402 112.285226 L 87.388386 109.428160 L 90.072068 106.597819 L 92.776592 103.791710 L 95.500854 101.007776 L 98.244477 98.244477 L 101.007776 95.500854 L 103.791710 92.776592 L 106.597819 90.072068 L 109.428160 87.388386 L 112.285226 84.727402 L 115.171865 82.091736 L 118.091189 79.484772 L 121.046484 76.910636 L 124.041112 74.374173 L 127.078419 71.880901 L 130.161640 69.436959 L 133.293811 67.049038 L 136.477681 64.724305 L 139.715634 62.470316 L 143.009619 60.294919 L 146.361083 58.206158 L 149.770920 56.212157 L 153.239427 54.321019 L 156.766272 52.540707 L 160.350477 50.878935 L 163.990402 49.343059 L 167.683755 47.939966 L 171.427606 46.675979 L 175.218408 45.556759 L 179.052040 44.587217 L 182.923848 43.771446 L 186.828705 43.112645 L 190.761070 42.613075 L 194.715059 42.274013 L 198.684522 42.095726 L 202.663120 42.077457 L 206.644404 42.217427 L 210.621904 42.512845 L 214.589207 42.959937 L 218.540036 43.553987 L 222.468333 44.289388 L 226.368329 45.159704 L 230.234611 46.157749 L 234.062188 47.275663 L 237.846541 48.505010 L 241.583670 49.836870 L 245.270133 51.261945 L 248.903075 52.770660 L 252.480243 54.353278 L 256.000000 56.000000 L 259.461321 57.701079 L 262.863785 59.446919 L 266.207559 61.228179 L 269.493367 63.035866 L 272.722459 64.861422 L 275.896567 66.696810 L 279.017859 68.534583 L 282.088884 70.367947 L 285.112515 72.190816 L 288.091889 73.997855 L 291.030343 75.784511 L 293.931348 77.547037 L 296.798449 79.282504 L 299.635194 80.988797 L 302.445078 82.664610 L 305.231479 84.309428 L 307.997607 85.923491 L 310.746445 87.507766 L 313.480710 89.063898 L 316.202804 90.594156 L 318.914785 92.101382 L 321.618334 93.588924 L 324.314736 95.060569 L 327.004859 96.520476 L 329.689151 97.973105 L 332.367638 99.423139 L 335.039922 100.875418 L 337.705203 102.334862 L 340.362288 103.806404 L 343.009619 105.294919 L 345.645302 106.805163 L 348.267140 108.341711 L 350.872671 109.908898 L 353.459213 111.510775 L 356.023907 113.151057 L 358.563766 114.833087 L 361.075726 116.559802 L 363.556696 118.333707 L 366.003612 120.156852 L 368.413486 122.030825 L 370.783459 123.956735 L 373.110851 125.935223 L 375.393208 127.966460 L 377.628347 130.050160 L 379.814397 132.185603 L 381.949840 134.371653 L 384.033540 136.606792 L 386.064777 138.889149 L 388.043265 141.216541 L 389.969175 143.586514 L 391.843148 145.996388 L 393.666293 148.443304 L 395.440198 150.924274 L 397.166913 153.436234 L 398.848943 155.976093 L 400.489225 158.540787 L 402.091102 161.127329 L 403.658289 163.732860 L 405.194837 166.354698 L 406.705081 168.990381 L 408.193596 171.637712 L 409.665138 174.294797 L 411.124582 176.960078 L 412.576861 179.632362 L 414.026895 182.310849 L 415.479524 184.995141 L 416.939431 187.685264 L 418.411076 190.381666 L 419.898618 193.085215 L 421.405844 195.797196 L 422.936102 198.519290 L 424.492234 201.253555 L 426.076509 204.002393 L 427.690572 206.768521 L 429.335390 209.554922 L 431.011203 212.364806 L 432.717496 215.201551 L 434.452963 218.068652 L 436.215489 220.969657 L 438.002145 223.908111 L 439.809184 226.887485 L 441.632053 229.911116 L 443.465417 232.982141 L 445.303190 236.103433 L 447.138578 239.277541 L 448.964134 242.506633 L 450.771821 245.792441 L 452.553081 249.136215 L 454.298921 252.538679 L 456.000000 256.000000 Z" fill="hsl(200.00, 60.00%, 50.00%)" fill-opacity="0.910000"/>
</svg>